<?xml version="1.0" encoding="UTF-8"?>
<svg id="Layer_1" data-name="Layer 1" xmlns="http://www.w3.org/2000/svg" xmlns:xlink="http://www.w3.org/1999/xlink" viewBox="0 0 146.47 150.24">
  <defs>
    <style>
      .cls-1 {
        fill: url(#linear-gradient);
      }
    </style>
    <linearGradient id="linear-gradient" x1="73.24" y1="150.24" x2="73.24" y2="0" gradientUnits="userSpaceOnUse">
      <stop offset="0" stop-color="#20a7a0"/>
      <stop offset="1" stop-color="#ffdb8a"/>
    </linearGradient>
  </defs>
  <path class="cls-1" d="M131.81,56.69c-6.52,0-12.23,3.39-15.51,8.5v-.03h0c-2.75,4.16-7.47,6.91-12.83,6.91s-10.08-2.75-12.83-6.91h0v.03c-3.28-5.11-8.99-8.5-15.51-8.5-10.18,0-18.43,8.25-18.43,18.43s8.25,18.43,18.43,18.43c6.82,0,12.76-3.71,15.94-9.22h.01c3.91-6.77,12.58-9.09,19.36-5.18,6.74,3.89,9.07,12.49,5.24,19.26-8.07,14.03-23.21,23.49-40.56,23.49-25.83,0-46.77-20.94-46.77-46.77S49.29,28.35,75.12,28.35c4.18,0,8.22,.56,12.07,1.58,.01,0,.02,0,.03,.01,7.56,2.03,15.33-2.46,17.36-10.02,2.03-7.56-2.46-15.33-10.02-17.36h0c-6.2-1.66-12.72-2.56-19.44-2.56C33.63,0,0,33.63,0,75.12s33.63,75.12,75.12,75.12c23.8,0,45.02-11.07,58.78-28.35,10.22-12.83,14.02-32.4,12.08-51.02-.93-8.91-7.74-14.17-14.17-14.17Z"/>
</svg>